<svg width="107" height="38" viewBox="0 0 107 38" fill="none" xmlns="http://www.w3.org/2000/svg">
<path opacity="0.28" d="M19.5021 23.248C27.3221 22.3235 33.3616 19.0382 32.9918 15.9102C32.732 13.7128 29.3781 12.1775 24.6943 11.7791C25.3954 13.1054 25.7617 14.6022 25.7837 16.1007C23.7618 16.7608 21.3904 17.2819 18.8325 17.5843C16.2746 17.8867 13.8471 17.933 11.727 17.7626C11.3989 16.3003 11.4061 14.7594 11.7786 13.3061C7.31684 14.7858 4.41342 17.0609 4.67323 19.2584C5.04305 22.3863 11.6822 24.1726 19.5021 23.248Z" fill="#FFFEFE"/>
<path d="M24.6949 11.7788C23.2464 9.03877 20.5357 7.33265 17.6612 7.6725C14.7867 8.01236 12.5486 10.3036 11.7791 13.3058M24.6949 11.7788C29.3786 12.1772 32.7325 13.7125 32.9924 15.9099C33.3622 19.0379 27.3226 22.3232 19.5027 23.2477C11.6827 24.1723 5.04361 22.386 4.67379 19.2581C4.41398 17.0606 7.3174 14.7855 11.7791 13.3058M24.6949 11.7788C25.396 13.1051 25.7623 14.6019 25.7843 16.1004C23.7624 16.7605 21.391 17.2816 18.8331 17.584C16.2752 17.8864 13.8477 17.9327 11.7276 17.7623C11.3995 16.3 11.4066 14.7591 11.7791 13.3058M8.51008 27.4188L7.42896 30.4181M20.0049 27.4955L20.5071 31.7433M31.1649 24.7403L32.9157 27.4048" stroke="#FFFEFE" stroke-width="2.85158" stroke-linecap="round" stroke-linejoin="round"/>
<path d="M51.8242 12.2949H55.5111L50.0676 18.7614C50.4408 19.096 50.769 19.4434 51.0521 19.8037C51.3481 20.1641 51.6312 20.5179 51.9014 20.8654C52.1717 21.2129 52.4419 21.541 52.7121 21.8499C52.9824 22.1587 53.2848 22.4161 53.6194 22.622C53.954 22.8279 54.3336 22.9759 54.7583 23.0659C55.1829 23.156 55.6848 23.1625 56.2639 23.0852L55.569 26.0965C54.6553 26.0965 53.8574 25.9485 53.1754 25.6525C52.4934 25.3566 51.8757 24.9705 51.3223 24.4944C50.769 24.0054 50.2542 23.452 49.7781 22.8343C49.3148 22.2166 48.8322 21.5796 48.3304 20.9233V26H44.8944V12.2949H48.3304V16.5608L51.8242 12.2949ZM56.7833 21.0198C56.7833 20.2606 56.8733 19.5721 57.0535 18.9544C57.2465 18.3367 57.5168 17.8091 57.8642 17.3716C58.2117 16.9212 58.6299 16.5737 59.1189 16.3292C59.6079 16.0847 60.1484 15.9624 60.7404 15.9624C61.6927 15.9624 62.439 16.4064 62.9795 17.2943V16.059H66.2031V26H62.9795V24.5523C62.349 25.5818 61.5382 26.0965 60.5473 26.0965C59.9554 26.0965 59.4213 25.9743 58.9452 25.7298C58.4819 25.4853 58.0894 25.1442 57.7677 24.7067C57.446 24.2563 57.2015 23.7222 57.0342 23.1045C56.8669 22.474 56.7833 21.7791 56.7833 21.0198ZM60.0262 21.0198C60.0262 21.8306 60.142 22.4869 60.3736 22.9887C60.6181 23.4777 60.9849 23.7222 61.4739 23.7222C61.8986 23.7222 62.246 23.5292 62.5163 23.1432C62.7865 22.7442 62.9409 22.1394 62.9795 21.3287V20.6724C62.928 19.1153 62.4905 18.3367 61.6669 18.3367C61.1779 18.3367 60.779 18.5812 60.4701 19.0702C60.1742 19.5592 60.0262 20.2091 60.0262 21.0198ZM67.3961 21.0198C67.3961 20.2606 67.4862 19.5721 67.6664 18.9544C67.8594 18.3367 68.1232 17.8091 68.4578 17.3716C68.8053 16.9212 69.2171 16.5737 69.6932 16.3292C70.1822 16.0847 70.7227 15.9624 71.3147 15.9624C72.2412 15.9624 73.0004 16.4579 73.5924 17.4488V12.2949H76.816V26H73.5924V24.4751C73.2836 24.9898 72.9232 25.3887 72.5114 25.6718C72.0996 25.955 71.6492 26.0965 71.1602 26.0965C70.5683 26.0965 70.0342 25.9743 69.5581 25.7298C69.0948 25.4853 68.7023 25.1442 68.3806 24.7067C68.0589 24.2563 67.8144 23.7222 67.6471 23.1045C67.4798 22.474 67.3961 21.7791 67.3961 21.0198ZM70.639 21.0198C70.639 21.8306 70.7549 22.4869 70.9865 22.9887C71.2181 23.4777 71.5785 23.7222 72.0675 23.7222C72.5179 23.7222 72.8846 23.5035 73.1677 23.0659C73.4508 22.6155 73.5924 21.9335 73.5924 21.0198C73.5924 19.2311 73.1356 18.3367 72.2219 18.3367C71.7329 18.3367 71.3468 18.5812 71.0637 19.0702C70.7806 19.5592 70.639 20.2091 70.639 21.0198ZM78.009 21.0198C78.009 20.2606 78.0991 19.5721 78.2793 18.9544C78.4723 18.3367 78.7425 17.8091 79.09 17.3716C79.4374 16.9212 79.8557 16.5737 80.3447 16.3292C80.8337 16.0847 81.3742 15.9624 81.9661 15.9624C82.9184 15.9624 83.6648 16.4064 84.2053 17.2943V16.059H87.4289V26H84.2053V24.5523C83.5747 25.5818 82.764 26.0965 81.7731 26.0965C81.1812 26.0965 80.6471 25.9743 80.171 25.7298C79.7077 25.4853 79.3152 25.1442 78.9935 24.7067C78.6718 24.2563 78.4273 23.7222 78.26 23.1045C78.0927 22.474 78.009 21.7791 78.009 21.0198ZM81.2519 21.0198C81.2519 21.8306 81.3677 22.4869 81.5994 22.9887C81.8439 23.4777 82.2106 23.7222 82.6997 23.7222C83.1243 23.7222 83.4718 23.5292 83.742 23.1432C84.0123 22.7442 84.1667 22.1394 84.2053 21.3287V20.6724C84.1538 19.1153 83.7163 18.3367 82.8927 18.3367C82.4037 18.3367 82.0047 18.5812 81.6959 19.0702C81.3999 19.5592 81.2519 20.2091 81.2519 21.0198ZM98.8103 18.163C99.029 17.4295 99.4473 16.8825 100.065 16.5222C100.683 16.149 101.435 15.9624 102.323 15.9624C103.276 15.9624 104.029 16.2005 104.582 16.6766C105.148 17.1528 105.431 17.9442 105.431 19.0509V26H102.208V19.4563C102.208 18.8386 102.092 18.3753 101.86 18.0665C101.629 17.7576 101.3 17.6032 100.876 17.6032C100.593 17.6032 100.329 17.674 100.084 17.8155C99.8398 17.9442 99.6274 18.1308 99.4473 18.3753C99.2671 18.6069 99.1256 18.8836 99.0226 19.2053C98.9325 19.5142 98.8875 19.8488 98.8875 20.2091V26H95.6639V19.3598C95.6639 18.7421 95.5481 18.2981 95.3164 18.0279C95.0977 17.7447 94.7824 17.6032 94.3706 17.6032C94.0746 17.6032 93.7979 17.674 93.5405 17.8155C93.296 17.9442 93.0837 18.1308 92.9035 18.3753C92.7234 18.6069 92.5818 18.8836 92.4789 19.2053C92.3888 19.5142 92.3438 19.8488 92.3438 20.2091V26H89.1202V16.059H92.2859V18.0086H92.3245C92.5432 17.3909 92.9357 16.8954 93.5019 16.5222C94.081 16.149 94.8338 15.9624 95.7604 15.9624C96.584 15.9624 97.2596 16.1362 97.7872 16.4836C98.3277 16.8182 98.6687 17.378 98.8103 18.163Z" fill="white"/>
</svg>
