<svg width="31" height="31" viewBox="0 0 31 31" fill="none" xmlns="http://www.w3.org/2000/svg">
<path d="M19.375 27.1248V20.6666C19.375 18.5265 17.6401 16.7916 15.5 16.7916C13.3599 16.7916 11.625 18.5265 11.625 20.6666V27.1248M19.375 27.1248C21.9282 27.1228 23.2666 27.0904 24.304 26.5618C25.2761 26.0665 26.0665 25.2761 26.5619 24.3039C27.125 23.1987 27.125 21.7519 27.125 18.8583V16.48C27.125 15.1665 27.125 14.5097 26.9717 13.8946C26.8359 13.3493 26.6119 12.8298 26.3088 12.3566C25.9668 11.8228 25.4893 11.3718 24.5344 10.47L21.1761 7.29822C19.1785 5.41162 18.1797 4.46833 17.0403 4.11246C16.0373 3.79918 14.9627 3.79918 13.9597 4.11246C12.8203 4.46833 11.8215 5.41162 9.82391 7.29821L6.46558 10.47C5.51066 11.3718 5.0332 11.8228 4.69121 12.3566C4.38806 12.8298 4.16414 13.3493 4.02828 13.8946C3.875 14.5097 3.875 15.1665 3.875 16.48V18.8583C3.875 21.7519 3.875 23.1987 4.43813 24.3039C4.93348 25.2761 5.72388 26.0665 6.69605 26.5618C7.73343 27.0904 9.07176 27.1228 11.625 27.1248M19.375 27.1248C16.7917 27.1269 14.2083 27.1269 11.625 27.1248" stroke="white" stroke-width="2" stroke-linecap="round" stroke-linejoin="round"/>
</svg>
