<svg width="31" height="31" viewBox="0 0 31 31" fill="none" xmlns="http://www.w3.org/2000/svg">
<path d="M2.58301 12.1417C2.58301 9.24806 2.58301 7.80126 3.14614 6.69605C3.64149 5.72388 4.43189 4.93348 5.40406 4.43813C6.50927 3.875 7.95607 3.875 10.8497 3.875H11.2573C11.8638 3.875 12.1671 3.875 12.4424 3.9586C12.6861 4.03262 12.9129 4.15396 13.1097 4.31569C13.3319 4.49838 13.5002 4.75073 13.8366 5.25543L14.5794 6.36957C14.9159 6.87427 15.0841 7.12662 15.3064 7.30931C15.5031 7.47104 15.7299 7.59238 15.9736 7.6664C16.2489 7.75 16.5522 7.75 17.1587 7.75H20.1497C23.0433 7.75 24.4901 7.75 25.5953 8.31313C26.5675 8.80848 27.3579 9.59888 27.8532 10.571C28.4163 11.6763 28.4163 13.1231 28.4163 16.0167V18.8583C28.4163 21.7519 28.4163 23.1987 27.8532 24.304C27.3579 25.2761 26.5675 26.0665 25.5953 26.5619C24.4901 27.125 23.0433 27.125 20.1497 27.125H10.8497C7.95607 27.125 6.50927 27.125 5.40406 26.5619C4.43189 26.0665 3.64149 25.2761 3.14614 24.304C2.58301 23.1987 2.58301 21.7519 2.58301 18.8583V12.1417Z" stroke="white" stroke-width="2" stroke-linecap="round" stroke-linejoin="round"/>
</svg>
