<svg width="40" height="40" viewBox="0 0 40 40" fill="none" xmlns="http://www.w3.org/2000/svg">
<path opacity="0.28" d="M20.5288 24.4715C28.7604 23.4983 35.1178 20.0402 34.7285 16.7476C34.455 14.4344 30.9246 12.8184 25.9943 12.399C26.7323 13.7951 27.1179 15.3706 27.141 16.948C25.0127 17.6429 22.5165 18.1914 19.824 18.5097C17.1315 18.8281 14.5762 18.8768 12.3445 18.6974C11.9991 17.1581 12.0067 15.5361 12.3987 14.0064C7.7022 15.5639 4.64596 17.9588 4.91944 20.2719C5.30873 23.5645 12.2973 25.4447 20.5288 24.4715Z" fill="#FFFEFE"/>
<path d="M25.9939 12.3988C24.4692 9.51457 21.6159 7.71866 18.5901 8.0764C15.5643 8.43414 13.2084 10.8459 12.3984 14.0062M25.9939 12.3988C30.9242 12.8182 34.4546 14.4343 34.7281 16.7474C35.1174 20.04 28.76 23.4982 20.5284 24.4714C12.2969 25.4446 5.30835 23.5643 4.91906 20.2717C4.64558 17.9586 7.70181 15.5638 12.3984 14.0062M25.9939 12.3988C26.7319 13.795 27.1175 15.3705 27.1406 16.9479C25.0123 17.6427 22.5161 18.1912 19.8236 18.5096C17.1311 18.8279 14.5758 18.8766 12.3441 18.6973C11.9988 17.158 12.0063 15.536 12.3984 14.0062M8.95726 28.862L7.81924 32.0191M21.0571 28.9427L21.5857 33.4141M32.8045 26.0425L34.6474 28.8472" stroke="#FFFEFE" stroke-width="1.99947" stroke-linecap="round" stroke-linejoin="round"/>
</svg>
