<svg width="15" height="18" viewBox="0 0 15 18" fill="none" xmlns="http://www.w3.org/2000/svg">
<path fill-rule="evenodd" clip-rule="evenodd" d="M7.41566 0.258521C7.21857 0.462296 7.16539 0.579086 7.16451 0.809778C7.16105 1.74638 6.58734 3.03959 5.74378 4.01224C5.49851 4.29502 4.69305 4.9423 4.58642 4.9423C4.552 4.9423 4.35004 4.6482 4.13757 4.28886C3.92518 3.92944 3.67116 3.57017 3.5732 3.49048C3.33315 3.29522 2.8315 3.29781 2.58851 3.49543C2.15438 3.84853 1.05997 5.72486 0.628188 6.85635C-0.838212 10.6993 0.332246 14.9049 3.4139 16.8657C5.40452 18.1322 8.13191 18.3563 10.4766 17.4463C11.3513 17.1067 12.0814 16.6041 12.8339 15.8234C13.858 14.7611 14.4666 13.6283 14.8273 12.113C15.0399 11.2202 15.0596 9.46254 14.8675 8.53939C14.5637 7.07943 14.0232 5.80554 13.1183 4.41713C11.7042 2.24723 9.08556 0 7.97136 0C7.72183 0 7.61982 0.0474462 7.41566 0.258521ZM9.2984 2.70253C10.3235 3.54508 11.4593 4.91455 12.1662 6.16032C13.787 9.01666 13.6606 12.1904 11.8379 14.4012C11.6793 14.5936 11.5304 14.7509 11.5069 14.7509C11.4835 14.7509 11.4767 14.4001 11.4919 13.9715C11.5261 13.0081 11.3396 12.1115 10.9176 11.2092C10.3066 9.90331 9.32296 8.89615 8.65856 8.89615C8.18942 8.89615 6.53262 10.0508 5.5255 11.0797C4.40903 12.2201 3.84443 13.3457 3.82795 14.4632L3.81935 15.05L3.42427 14.6533C1.78511 13.0075 1.27222 10.2419 2.14019 7.729C2.34574 7.1341 2.95998 5.85215 3.03618 5.85906C3.06243 5.86142 3.21077 6.03547 3.36573 6.2457C3.73882 6.7518 4.00549 6.86562 4.56737 6.75856C5.74253 6.53471 6.86563 5.59986 7.84524 4.02988C8.2098 3.44555 8.6365 2.50339 8.6365 2.28258C8.6365 2.17248 8.71137 2.22001 9.2984 2.70253ZM8.92803 11.1962C9.44519 11.9205 9.81321 12.9726 9.81321 13.7266C9.81321 14.5698 9.40673 15.39 8.76888 15.8337C8.38674 16.0995 8.05065 16.1946 7.49127 16.1951C6.3581 16.1962 5.54764 15.4772 5.54764 14.471C5.54764 13.726 6.22153 12.695 7.3127 11.7705C7.8192 11.3414 8.49662 10.8731 8.61076 10.8731C8.65834 10.8731 8.80117 11.0184 8.92803 11.1962Z" fill="#F9F9F9"/>
</svg>
