<svg width="72" height="69" viewBox="0 0 72 69" fill="none" xmlns="http://www.w3.org/2000/svg">
<path fill-rule="evenodd" clip-rule="evenodd" d="M5.72868 3.14261C3.95176 3.89472 2.83514 5.14673 2.3144 6.97086C2.09057 7.75467 2.09542 7.89941 3.07623 29.8626L4.0632 51.9655L4.38827 52.68C5.04627 54.1263 6.31927 55.2939 7.81686 55.8248L8.55677 56.0871L17.1998 55.7482L25.8429 55.4094L25.9312 55.8155C25.9797 56.039 26.2455 57.5828 26.5216 59.2463C27.0898 62.6681 27.2568 63.2387 27.9941 64.2783C28.6351 65.1821 29.4015 65.7718 30.5817 66.2695L31.4793 66.6481L48.3296 65.9207L65.1799 65.1932L65.8945 64.8681C67.3408 64.2101 68.5084 62.9371 69.0393 61.4395L69.3016 60.6996L68.3389 38.4015L67.3763 16.1033L67.0512 15.3888C66.3932 13.9425 65.1202 12.7749 63.6226 12.244L62.8827 11.9817L48.5332 12.5678C40.6409 12.8903 34.1827 13.1405 34.1813 13.124C34.1325 12.4724 32.9442 6.0981 32.7891 5.65571C32.2683 4.1704 30.9368 2.84789 29.3243 2.21419L28.5577 1.91295L17.5341 2.36233L6.51063 2.81171L5.72868 3.14261ZM27.7934 5.82049C28.3263 5.94396 29.017 6.53344 29.149 6.97732C29.2445 7.29852 36.5624 50.6138 36.5766 50.9418C36.5842 51.1181 35.1837 51.1951 22.8465 51.6968C9.19517 52.2519 9.10564 52.2538 8.74691 52.0092C8.54826 51.8739 8.26146 51.6108 8.10949 51.4246C7.83341 51.0863 7.8324 51.069 6.88907 30.0974C6.36989 18.5537 5.96792 8.80174 5.99602 8.42647C6.0576 7.60371 6.57319 6.89806 7.25202 6.70717C7.90727 6.52289 27.2263 5.68898 27.7934 5.82049ZM62.6926 16.0596C62.8912 16.1949 63.178 16.458 63.33 16.6442C63.6061 16.9825 63.6071 16.9999 64.5504 37.9714C65.0696 49.5151 65.4709 59.2733 65.4423 59.6562C65.3991 60.2319 65.3129 60.4366 64.9435 60.8393C64.5737 61.2423 64.3782 61.3454 63.8078 61.4376C63.4287 61.4987 56.4826 61.8185 48.3719 62.1482L33.625 62.7476L36.906 58.6076C40.8522 53.6283 40.7674 53.7465 40.8159 53.1442C40.8374 52.8789 39.508 44.6986 37.8619 34.9657C36.2158 25.233 34.8657 17.1935 34.8617 17.1003C34.8556 16.9595 37.1875 16.8359 48.5929 16.372C62.2443 15.8169 62.3338 15.815 62.6926 16.0596ZM34.5826 55.2491C32.6465 57.743 30.7069 60.1396 30.6598 60.0965C30.6265 60.0659 30.457 59.2003 30.2833 58.173C30.1095 57.1456 29.9265 56.0641 29.8765 55.7696L29.7856 55.2341L32.2733 55.1267C34.6298 55.0249 34.7517 55.0313 34.5826 55.2491Z" fill="#464646"/>
<path d="M6.03261 6.91161C6.02715 6.70566 6.18643 6.53269 6.39213 6.52117L29.3424 5.23599C29.5378 5.22505 29.7097 5.36396 29.7401 5.55731L36.8386 50.8066C36.874 51.0323 36.7043 51.2381 36.476 51.2464L7.61848 52.2909C7.40677 52.2986 7.22948 52.1321 7.22387 51.9203L6.03261 6.91161Z" fill="black"/>
<path d="M34.4267 16.409L63.8066 15.3807L65.4004 61.6805L33.645 62.783L40.8571 53.5949L34.4267 16.409Z" fill="black"/>
<path fill-rule="evenodd" clip-rule="evenodd" d="M17.0941 25.047C16.8897 25.0839 16.5443 25.1698 16.3266 25.2379C15.8195 25.3964 14.9065 25.8267 14.8745 25.9223C14.8526 25.9876 15.2829 27.0871 15.3946 27.2515C15.4268 27.2989 15.5602 27.2479 15.9028 27.057C17.0439 26.4211 18.3018 26.2424 19.034 26.6123C19.5205 26.858 19.7868 27.4259 19.7118 28.0577C19.6118 28.899 19.028 29.3266 17.4997 29.6775C17.1546 29.7567 16.8207 29.8337 16.7577 29.8485C16.6463 29.8746 16.6455 29.8835 16.7267 30.1794C16.7726 30.3467 16.8595 30.6699 16.9199 30.8977L17.0295 31.312L17.3554 31.2617C17.5346 31.234 17.9269 31.1537 18.2273 31.0833C18.5277 31.0128 18.8219 30.9683 18.8812 30.9843C18.9404 31.0003 19.1713 31.1785 19.3942 31.3802C19.694 31.6516 19.8586 31.8547 20.0269 32.1612C20.241 32.551 20.2557 32.604 20.2753 33.0597C20.2943 33.4985 20.2813 33.578 20.1376 33.9047C19.7064 34.8848 18.3853 35.2202 17.1968 34.6513C16.3052 34.2245 15.3734 32.9474 14.5686 31.049C14.4064 30.6667 14.2487 30.3546 14.218 30.3555C14.1688 30.357 12.8804 30.9373 12.8399 30.9763C12.8031 31.0117 13.4067 32.2968 13.7997 33.0201C14.9538 35.1437 16.1614 36.172 17.7432 36.3779C18.7379 36.5074 19.624 36.3632 20.3999 35.9455C21.4074 35.4033 21.8987 34.5738 21.9079 33.3998C21.9125 32.8122 21.8397 32.4362 21.6417 32.0244C21.5588 31.8519 21.5489 31.7983 21.6036 31.8166C21.9036 31.9171 23.2089 31.8339 24 31.6639L24.1988 31.6212L24.3235 34.5108L24.4483 37.4003L25.3026 37.3634L26.157 37.3266L25.9184 31.8016L25.6799 26.2767L26.7212 26.2318L27.7624 26.1868L27.7313 25.4662L27.7002 24.7455L25.0837 24.8585L22.4673 24.9715L22.4984 25.6921L22.5295 26.4127L23.2503 26.3816L23.9712 26.3505L24.0517 28.2152C24.1264 29.9443 24.1255 30.0824 24.04 30.1136C23.7527 30.2185 22.7919 30.3584 22.1729 30.3854C21.4929 30.415 20.3643 30.3407 20.2744 30.2603C20.2512 30.2396 20.3336 30.1396 20.4575 30.0382C20.8656 29.704 21.1816 29.1573 21.3077 28.567C21.389 28.1863 21.3678 27.3972 21.2653 26.9914C21.0183 26.0129 20.2328 25.2771 19.1765 25.0346C18.7875 24.9453 17.6186 24.9523 17.0941 25.047Z" fill="#D2D2D2"/>
<path fill-rule="evenodd" clip-rule="evenodd" d="M45.1484 32.6312L45.1816 33.4001L49.4316 33.2166L53.6817 33.0332L54.006 33.3308C54.3586 33.6541 54.4021 33.836 54.2423 34.3179C54.0917 34.7722 53.5269 34.9438 51.9596 35.0115L50.5848 35.0708L50.6177 35.831L50.6505 36.5911L51.6957 36.5468C52.7203 36.5033 52.7337 36.5067 52.3694 36.7161C51.0132 37.4961 50.7338 39.1671 51.7815 40.2309C52.3598 40.818 52.9161 40.9762 54.0144 40.8665C54.6572 40.8023 54.9772 40.7031 55.2485 40.4837L55.6149 40.1876L55.5035 40.5577C55.3195 41.1692 54.5987 41.9706 53.9029 42.3374C52.9564 42.8361 51.7623 43.0601 50.0525 43.0595C47.9234 43.0589 46.4495 42.5392 45.7786 41.5525L45.5213 41.1739L46.6017 41.184C47.9261 41.1962 48.5936 40.9459 49.2047 40.2077C49.6736 39.6416 49.8066 39.0669 49.6705 38.1976C49.4537 36.8139 48.013 36.0736 46.3888 36.5115C45.0419 36.8746 44.1236 37.9966 43.9172 39.5317C43.5788 42.0479 45.3107 44.004 48.3269 44.5121C49.7326 44.7488 52.178 44.6096 53.4441 44.2209C55.5708 43.5677 56.7625 42.3123 57.0244 40.4493C57.1567 39.5081 56.9312 38.313 56.4648 37.4835C56.1602 36.9416 55.1744 36.015 54.9144 36.0263C54.8549 36.0288 54.9967 35.8486 55.2295 35.6255C55.7578 35.1197 55.9355 34.5137 55.8279 33.5852C55.7235 32.6843 55.3645 32.1968 54.5377 31.833C53.9359 31.5682 53.8384 31.5659 49.5196 31.7127L45.1152 31.8622L45.1484 32.6312ZM47.954 38.1099C48.3503 38.5582 48.2498 39.3479 47.7681 39.5712C46.9514 39.9499 45.5324 39.9317 45.3626 39.5404C45.234 39.2443 45.8096 38.2744 46.2699 38.0112C46.8274 37.6925 47.6266 37.7393 47.954 38.1099ZM54.5895 37.6458C55.4404 38.0056 55.6382 38.6939 55.0186 39.1393C54.5452 39.4795 53.9945 39.6108 53.5089 39.4989C52.992 39.38 52.79 39.1081 52.7636 38.4954C52.7273 37.6543 53.6232 37.2375 54.5895 37.6458Z" fill="#D2D2D2"/>
<path d="M34.5411 55.1825L29.79 55.331L30.5667 60.2819L34.5411 55.1825Z" fill="black"/>
</svg>
