<svg width="38" height="36" viewBox="0 0 38 36" fill="none" xmlns="http://www.w3.org/2000/svg">
<path fill-rule="evenodd" clip-rule="evenodd" d="M3.16839 0.169189C2.16636 0.540647 1.51709 1.20529 1.18312 2.20144C1.03958 2.62948 1.03863 2.70968 1.02922 14.886L1.01971 27.1398L1.1816 27.5433C1.5093 28.36 2.18427 29.0381 2.99951 29.3694L3.40229 29.5332L8.19278 29.5629L12.9833 29.5927L13.0219 29.8196C13.0432 29.9445 13.1514 30.8053 13.2624 31.7327C13.4907 33.6401 13.5688 33.96 13.9506 34.5537C14.2825 35.0699 14.6917 35.4154 15.3322 35.7205L15.8193 35.9525L25.1605 35.9736L34.5016 35.9946L34.9051 35.8327C35.7218 35.505 36.3999 34.8301 36.7312 34.0148L36.895 33.612L36.9228 21.2508L36.9507 8.88962L36.7888 8.48611C36.4611 7.66938 35.7861 6.99136 34.9709 6.65998L34.5681 6.49627L26.6141 6.45987C22.2394 6.43989 18.66 6.41601 18.6596 6.40681C18.649 6.04508 18.1518 2.48848 18.0771 2.23982C17.8263 1.40494 17.1229 0.639761 16.2466 0.248616L15.83 0.062679L9.71968 0.0342217L3.60934 0.00576434L3.16839 0.169189ZM15.309 2.20541C15.6007 2.28712 15.968 2.63062 16.0299 2.87953C16.0746 3.05965 19.0347 27.2089 19.0343 27.3907C19.0341 27.4884 18.2573 27.4959 11.4188 27.4633C3.8519 27.4273 3.80232 27.4261 3.60999 27.2818C3.50348 27.2019 3.35142 27.0491 3.27201 26.9423C3.12777 26.7482 3.12765 26.7385 3.13287 15.1118C3.13578 8.71188 3.15851 3.30626 3.18348 3.09934C3.23824 2.64567 3.54124 2.26822 3.92161 2.17966C4.28878 2.09417 14.9985 2.11839 15.309 2.20541ZM34.3604 8.74766C34.4669 8.82755 34.619 8.9803 34.6984 9.08717C34.8426 9.28127 34.8428 9.29089 34.8375 20.9176C34.8346 27.3175 34.8114 32.7266 34.7859 32.9377C34.7476 33.2552 34.6947 33.3662 34.4802 33.5798C34.2655 33.7934 34.1547 33.8456 33.8368 33.8822C33.6256 33.9065 29.7744 33.9089 25.2787 33.8874L17.1045 33.8484L19.0239 31.6403C21.3324 28.9845 21.2825 29.0478 21.3245 28.7158C21.343 28.5695 20.8131 24.0102 20.147 18.5838C19.4809 13.1576 18.936 8.67559 18.9361 8.6239C18.9363 8.54586 20.2296 8.53607 26.5516 8.56613C34.1185 8.60215 34.1681 8.60332 34.3604 8.74766ZM17.8228 29.7237C16.6889 31.0548 15.5555 32.3321 15.5306 32.307C15.5129 32.2893 15.4409 31.8061 15.3706 31.2333C15.3003 30.6606 15.2262 30.0576 15.2059 29.8934L15.1691 29.5948L16.5482 29.5979C17.8546 29.6009 17.9218 29.6075 17.8228 29.7237Z" fill="#464646"/>
<path d="M3.23856 2.42712C3.24246 2.22113 3.40942 2.05556 3.61543 2.05339L16.0267 1.92257C16.2224 1.92051 16.3879 2.06708 16.4094 2.26161L19.1615 27.1321C19.1866 27.3591 19.0077 27.557 18.7793 27.5549L3.15007 27.4108C2.93824 27.4089 2.76868 27.2345 2.77269 27.0227L3.23856 2.42712Z" fill="#0E0E0E"/>
<path d="M18.7126 8.23049L34.9936 8.40006L34.7116 34.0566L17.1144 33.8684L21.3356 28.9662L18.7126 8.23049Z" fill="#0E0E0E"/>
<path fill-rule="evenodd" clip-rule="evenodd" d="M8.9058 12.574C8.7918 12.5893 8.59856 12.6282 8.47638 12.6603C8.1918 12.7353 7.67589 12.9504 7.65576 13.0025C7.64201 13.0381 7.85244 13.6572 7.9101 13.751C7.92673 13.7781 8.0018 13.7532 8.19614 13.6561C8.84352 13.333 9.54396 13.2658 9.93979 13.4888C10.2028 13.637 10.3358 13.9579 10.2785 14.3055C10.202 14.7686 9.8682 14.9904 9.01381 15.1462C8.82088 15.1813 8.63423 15.2155 8.59901 15.2221C8.53671 15.2338 8.53601 15.2387 8.57353 15.4044C8.59472 15.4981 8.63469 15.6791 8.66235 15.8067L8.71262 16.0387L8.89415 16.019C8.99399 16.0082 9.21309 15.9737 9.38103 15.9422C9.549 15.9108 9.71292 15.8936 9.74531 15.9039C9.7777 15.9143 9.90093 16.0186 10.0192 16.1358C10.1782 16.2935 10.2642 16.41 10.3496 16.5838C10.4583 16.8049 10.4651 16.8346 10.4645 17.0872C10.464 17.3304 10.4548 17.3741 10.367 17.5513C10.1039 18.0827 9.3645 18.235 8.7212 17.8904C8.23863 17.6319 7.75519 16.9019 7.35763 15.8313C7.27754 15.6157 7.1981 15.4391 7.18108 15.4388C7.15382 15.4384 6.42639 15.7271 6.40302 15.7476C6.38178 15.7663 6.68341 16.4925 6.88271 16.9025C7.46786 18.1065 8.11013 18.7058 8.98013 18.8595C9.52719 18.9561 10.0211 18.8986 10.4609 18.687C11.0319 18.4123 11.3246 17.9657 11.3592 17.3164C11.3765 16.9915 11.3457 16.7816 11.2465 16.5487C11.205 16.4512 11.2009 16.4213 11.2306 16.4328C11.3941 16.496 12.1184 16.4827 12.5603 16.4086L12.6714 16.39L12.6678 17.9918L12.6642 19.5937L13.1378 19.5947L13.6114 19.5958L13.6183 16.533L13.6252 13.4702L14.2025 13.4715L14.7797 13.4728L14.7806 13.0733L14.7815 12.6738L13.331 12.6706L11.8805 12.6673L11.8796 13.0668L11.8787 13.4663L12.2784 13.4672L12.678 13.4681L12.6757 14.5018C12.6735 15.4603 12.6696 15.5367 12.6215 15.5518C12.4599 15.6027 11.9248 15.6559 11.5816 15.6553C11.2046 15.6546 10.5821 15.5851 10.5344 15.5383C10.522 15.5263 10.5701 15.4731 10.6412 15.4201C10.8754 15.2454 11.064 14.9509 11.1486 14.6275C11.2032 14.4189 11.2113 13.9818 11.1648 13.7546C11.0527 13.207 10.6366 12.7802 10.0583 12.6195C9.84526 12.5603 9.19841 12.5348 8.9058 12.574Z" fill="#D2D2D2"/>
<path fill-rule="evenodd" clip-rule="evenodd" d="M24.2368 17.4753L24.2359 17.9016L26.5919 17.9069L28.9479 17.9122L29.1199 18.085C29.3069 18.2728 29.3264 18.3745 29.2258 18.6371C29.1311 18.8847 28.8143 18.9654 27.9454 18.9635L27.1833 18.9618L27.1824 19.3832L27.1814 19.8046L27.7609 19.8063C28.3288 19.808 28.3361 19.8102 28.1293 19.9169C27.3594 20.3144 27.1628 21.2319 27.7157 21.8468C28.0209 22.1862 28.3247 22.2877 28.9351 22.2546C29.2924 22.2352 29.4719 22.1884 29.6276 22.0738L29.8377 21.9192L29.7668 22.1212C29.6496 22.4549 29.2307 22.8801 28.8365 23.0656C28.3003 23.3177 27.634 23.4116 26.688 23.3684C25.51 23.3145 24.7076 22.9899 24.3612 22.4271L24.2284 22.2112L24.8259 22.2439C25.5583 22.284 25.9339 22.1623 26.2906 21.7692C26.5642 21.4677 26.6523 21.1531 26.5988 20.6688C26.5137 19.8977 25.7352 19.452 24.8255 19.6534C24.0712 19.8205 23.5349 20.4181 23.3822 21.2623C23.1317 22.6459 24.0407 23.7717 25.6968 24.1287C26.4685 24.295 27.825 24.2794 28.5353 24.0961C29.7283 23.7882 30.4193 23.1236 30.611 22.0994C30.7078 21.582 30.6131 20.9151 30.3759 20.4444C30.221 20.137 29.6989 19.5995 29.5548 19.5992C29.5218 19.5991 29.6048 19.503 29.7392 19.3854C30.0442 19.1189 30.1577 18.788 30.1215 18.2716C30.0864 17.7705 29.9 17.4918 29.4517 17.2697C29.1254 17.1081 29.0716 17.1044 26.6784 17.077L24.2378 17.049L24.2368 17.4753ZM25.6514 20.5771C25.8593 20.8351 25.7839 21.2695 25.5118 21.3809C25.0504 21.5699 24.2658 21.5242 24.1816 21.3034C24.118 21.1363 24.4608 20.6142 24.722 20.4802C25.0385 20.3179 25.4795 20.3638 25.6514 20.5771ZM29.3343 20.4871C29.796 20.7076 29.8882 21.0934 29.5342 21.3242C29.2637 21.5005 28.9557 21.5593 28.6899 21.4852C28.4068 21.4064 28.3019 21.2509 28.3027 20.9113C28.3037 20.445 28.8099 20.2369 29.3343 20.4871Z" fill="#D2D2D2"/>
<path d="M17.8013 29.6858L15.1689 29.6486L15.4742 32.4073L17.8013 29.6858Z" fill="black"/>
</svg>
