<svg width="10" height="9" viewBox="0 0 10 9" fill="none" xmlns="http://www.w3.org/2000/svg">
<path fill-rule="evenodd" clip-rule="evenodd" d="M3.8316 0.514714C3.57638 0.799311 3.25903 1.27809 3.12651 1.57857C2.91321 2.06168 2.76743 2.13856 1.86712 2.24414C-0.139104 2.47947 -0.588201 3.70719 0.810826 5.13126C1.57939 5.91358 1.58881 5.93957 1.41975 6.81177C1.2328 7.77709 1.38898 8.40133 1.91058 8.77291C2.39257 9.11652 2.98168 9.07339 3.9722 8.62168C4.90174 8.19812 4.74864 8.18332 6.53561 8.86784C7.2582 9.1445 7.98675 8.95067 8.38911 8.37444C8.6655 7.97867 8.68762 7.74353 8.52894 6.8836L8.34065 5.86251L9.18614 5.01305C10.1101 4.08454 10.1761 3.85138 9.73948 3.05895C9.4506 2.53469 9.31943 2.47604 7.81962 2.20046C7.15761 2.07883 6.97989 1.9377 6.54599 1.18858C5.95668 0.171104 5.7255 0.00380975 4.90366 1.99253e-05C4.46822 -0.00196522 4.16395 0.144214 3.8316 0.514714ZM5.71819 1.97506C6.25865 2.90681 6.65851 3.13998 8.06003 3.34084C8.50971 3.40526 8.87745 3.54314 8.87745 3.64745C8.87745 3.75176 8.51971 4.20113 8.08273 4.64598L7.28782 5.45502L7.41091 6.69645C7.55189 8.11998 7.4588 8.18675 6.18479 7.57695C5.21851 7.11442 4.67036 7.12199 3.5933 7.61305C2.50835 8.10753 2.30756 7.95485 2.53836 6.81033C2.75377 5.74178 2.66626 5.50771 1.69459 4.55484C0.783707 3.66153 0.85564 3.50957 2.3116 3.25042C3.59407 3.02231 3.60773 3.01347 4.0951 2.10554C4.87328 0.6562 4.94963 0.650064 5.71819 1.97506Z" fill="#FAFAFA"/>
</svg>
